<svg width="100%" height="100%" fill="#fff" viewBox="0 0 119 119" version="1.1" xmlns="http://www.w3.org/2000/svg" xmlns:xlink="http://www.w3.org/1999/xlink" xml:space="preserve" xmlns:serif="http://www.serif.com/" style="fill-rule:evenodd;clip-rule:evenodd;stroke-linejoin:round;stroke-miterlimit:2;"><path d="M59.366,0c32.762,0 59.365,26.603 59.365,59.366c0,32.768 -26.603,59.365 -59.365,59.365c-32.763,0 -59.366,-26.597 -59.366,-59.365c0,-32.763 26.603,-59.366 59.366,-59.366Zm0.158,10.633c18.269,0.07 36.055,11.185 44.019,27.596c6.754,13.907 6.295,31.088 -1.222,44.636c-9.863,17.763 -31.323,28.208 -51.919,24.422c-20.061,-3.691 -36.854,-20.831 -39.628,-41.415c-2.727,-20.272 8.67,-41.767 27.89,-50.684c6.507,-3.021 13.595,-4.567 20.86,-4.555Zm-0.299,4.702c-16.611,0.077 -32.751,10.175 -39.922,25.192c-5.972,12.497 -5.525,27.902 1.222,40.052c8.952,16.128 28.625,25.574 47.228,22.03c19.515,-3.721 35.526,-21.49 35.931,-42.391c0.318,-16.822 -9.827,-33.333 -25.351,-40.651c-5.96,-2.809 -12.484,-4.244 -19.108,-4.232Zm15.158,18.492c1.793,0 3.333,0.182 4.626,0.546c1.293,0.365 2.422,0.929 3.38,1.693c0.964,0.764 1.828,1.758 2.586,2.986c0.764,1.223 1.546,2.698 2.34,4.426c0.329,0.594 0.864,0.893 1.592,0.893c0.394,0 0.841,-0.082 1.341,-0.246c0.499,-0.171 0.911,-0.318 1.246,-0.447c-0.535,-1.593 -0.947,-3.004 -1.246,-4.232c-0.3,-1.223 -0.547,-2.434 -0.747,-3.627c-0.329,-1.528 -0.547,-2.886 -0.646,-4.079c-0.1,-1.193 -0.247,-2.057 -0.447,-2.586c-0.329,-0.594 -0.864,-0.894 -1.593,-0.894c-0.794,0 -2.269,0.1 -4.426,0.3c-2.151,0.194 -4.72,0.294 -7.706,0.294l-30.635,0c-3.05,0 -5.648,-0.1 -7.806,-0.294c-2.157,-0.2 -3.597,-0.3 -4.326,-0.3c-0.799,0 -1.328,0.3 -1.592,0.894c-0.2,0.529 -0.365,1.393 -0.494,2.586c-0.135,1.193 -0.335,2.551 -0.6,4.079c-0.2,1.193 -0.464,2.404 -0.793,3.627c-0.335,1.228 -0.729,2.639 -1.193,4.232c0.264,0.129 0.658,0.276 1.193,0.447c0.529,0.164 0.993,0.246 1.393,0.246c0.729,0 1.222,-0.299 1.487,-0.893c0.799,-1.728 1.575,-3.203 2.339,-4.426c0.764,-1.228 1.622,-2.222 2.586,-2.986c0.964,-0.764 2.087,-1.328 3.38,-1.693c1.293,-0.364 2.869,-0.546 4.726,-0.546l8.752,0l0,25.051l-12.091,0c-1.075,0.047 -1.616,1.028 -1.616,2.962l0,0.999c0,0.318 0.035,0.653 0.106,1.006l13.601,0l0,7.082l-12.014,0c-1.129,0 -1.693,1.017 -1.693,3.063l0,0.952c0,0.352 0.035,0.705 0.106,1.058l13.601,0l0,10.145c0,1.328 -0.312,2.269 -0.946,2.833c-0.629,0.564 -2.169,1.011 -4.62,1.346c-0.735,0.129 -1.182,0.347 -1.346,0.647c-0.165,0.293 -0.247,0.676 -0.247,1.14c0,0.2 0.017,0.499 0.047,0.893c0.035,0.4 0.117,0.735 0.247,0.999c2.127,-0.135 4.361,-0.252 6.718,-0.352c2.351,-0.094 4.491,-0.147 6.413,-0.147c1.857,0 3.997,0.053 6.412,0.147c2.422,0.1 4.697,0.217 6.819,0.352c0.064,-0.264 0.111,-0.599 0.147,-0.999c0.035,-0.394 0.052,-0.693 0.052,-0.893c0,-0.929 -0.499,-1.493 -1.493,-1.687c-1.328,-0.2 -2.357,-0.417 -3.085,-0.653c-0.729,-0.229 -1.293,-0.511 -1.693,-0.84c-0.394,-0.335 -0.647,-0.717 -0.747,-1.146c-0.094,-0.429 -0.147,-0.976 -0.147,-1.64l0,-10.145l11.915,0c1.193,-0.006 1.792,-1.023 1.792,-3.068l0,-1c0,-0.317 -0.035,-0.652 -0.105,-1.005l-13.602,0l0,-7.082l11.915,0c1.193,0 1.792,-1.023 1.792,-3.063l0,-0.899c0,-0.317 -0.035,-0.653 -0.105,-1.005l-13.602,0l0,-25.051l8.752,0Z"/></svg>