<?xml version="1.0" encoding="UTF-8" standalone="no"?>
<!DOCTYPE svg PUBLIC "-//W3C//DTD SVG 1.1//EN" "http://www.w3.org/Graphics/SVG/1.1/DTD/svg11.dtd">
<svg width="100%" height="100%" viewBox="0 0 1040 453" version="1.1" xmlns="http://www.w3.org/2000/svg" xmlns:xlink="http://www.w3.org/1999/xlink" xml:space="preserve" xmlns:serif="http://www.serif.com/" style="fill-rule:evenodd;clip-rule:evenodd;stroke-linejoin:round;stroke-miterlimit:2;">
    <g transform="matrix(1,0,0,1,-4694,-2565.68)">
        <g transform="matrix(1,0,0,1,2244,1633)">
            <g transform="matrix(1,0,0,1,360,189)">
                <g transform="matrix(1,0,0,1,-178,664)">
                    <path d="M2479,162L2442,79.683L2268,344L2360,343L2348,320L2389,261L2476,345L2559,342L2424,208L2459,158L2479,162Z" style="fill:white;"/>
                </g>
                <g transform="matrix(1,0,0,1,-178,664)">
                    <path d="M2542,369L2437,532.683L2294,366L2362,365L2408,295L2446,336L2407,398L2436,431L2479,367L2542,369Z" style="fill:white;"/>
                </g>
            </g>
        </g>
        <g transform="matrix(1,0,0,1,2244,1633)">
            <g transform="matrix(2.83964,0,0,2.83964,-5559.86,-1735.88)">
                <g transform="matrix(144,0,0,144,2981.44,1068.98)">
                    <path d="M0.333,-0.503C0.374,-0.503 0.41,-0.493 0.441,-0.473C0.472,-0.452 0.497,-0.423 0.515,-0.384C0.532,-0.345 0.541,-0.3 0.541,-0.247C0.541,-0.171 0.523,-0.109 0.486,-0.062C0.449,-0.014 0.398,0.01 0.333,0.01C0.305,0.01 0.278,0.005 0.253,-0.005C0.228,-0.014 0.207,-0.029 0.191,-0.049L0.191,0L0.071,0L0.071,-0.697L0.191,-0.697L0.191,-0.443C0.206,-0.462 0.227,-0.476 0.253,-0.487C0.278,-0.498 0.305,-0.503 0.333,-0.503ZM0.304,-0.101C0.343,-0.101 0.373,-0.114 0.392,-0.139C0.411,-0.164 0.421,-0.199 0.421,-0.246C0.421,-0.293 0.411,-0.33 0.392,-0.356C0.372,-0.381 0.342,-0.394 0.303,-0.394C0.262,-0.394 0.232,-0.38 0.211,-0.353C0.19,-0.326 0.18,-0.29 0.18,-0.246C0.18,-0.203 0.19,-0.168 0.211,-0.141C0.232,-0.114 0.263,-0.101 0.304,-0.101Z" style="fill:white;fill-rule:nonzero;"/>
                </g>
                <g transform="matrix(144,0,0,144,3063.95,1068.98)">
                    <path d="M0.49,-0.253C0.49,-0.238 0.489,-0.223 0.487,-0.207L0.149,-0.207C0.152,-0.174 0.163,-0.147 0.184,-0.128C0.205,-0.109 0.234,-0.099 0.272,-0.099C0.32,-0.099 0.359,-0.117 0.39,-0.152L0.473,-0.079C0.446,-0.049 0.416,-0.027 0.383,-0.012C0.349,0.003 0.312,0.01 0.271,0.01C0.217,0.01 0.172,-0.002 0.136,-0.025C0.099,-0.048 0.072,-0.079 0.055,-0.118C0.038,-0.156 0.029,-0.198 0.029,-0.244C0.029,-0.289 0.038,-0.332 0.055,-0.371C0.071,-0.41 0.097,-0.442 0.133,-0.467C0.167,-0.491 0.211,-0.503 0.263,-0.503C0.312,-0.503 0.354,-0.492 0.388,-0.47C0.422,-0.448 0.448,-0.418 0.465,-0.38C0.482,-0.342 0.49,-0.3 0.49,-0.253ZM0.375,-0.297C0.375,-0.33 0.365,-0.356 0.344,-0.375C0.323,-0.394 0.295,-0.403 0.262,-0.403C0.227,-0.403 0.2,-0.393 0.181,-0.372C0.162,-0.351 0.151,-0.326 0.148,-0.297L0.375,-0.297Z" style="fill:white;fill-rule:nonzero;"/>
                </g>
                <g transform="matrix(144,0,0,144,3138.69,1068.98)">
                    <path d="M0.21,-0.398L0.21,-0.147C0.21,-0.128 0.216,-0.113 0.227,-0.104C0.238,-0.095 0.253,-0.09 0.273,-0.09C0.29,-0.09 0.31,-0.094 0.333,-0.101L0.333,-0.005C0.303,0.005 0.273,0.01 0.243,0.01C0.198,0.01 0.162,-0.002 0.133,-0.027C0.104,-0.051 0.09,-0.088 0.09,-0.138L0.09,-0.398L0.01,-0.398L0.01,-0.493L0.09,-0.493L0.09,-0.608L0.21,-0.697L0.21,-0.493L0.333,-0.493L0.333,-0.398L0.21,-0.398Z" style="fill:white;fill-rule:nonzero;"/>
                </g>
            </g>
        </g>
        <g transform="matrix(1,0,0,1,2244,1633)">
            <g transform="matrix(0.587779,0,0,0.587779,2162.96,-690.256)">
                <path d="M1143.98,3189.49C1199.72,3189.49 1244.98,3234.75 1244.98,3290.49C1244.98,3346.24 1199.72,3391.49 1143.98,3391.49C1088.24,3391.49 1042.98,3346.24 1042.98,3290.49C1042.98,3234.75 1088.24,3189.49 1143.98,3189.49ZM1144.25,3207.58C1175.33,3207.7 1205.59,3226.61 1219.14,3254.53C1230.63,3278.19 1229.85,3307.42 1217.06,3330.47C1200.28,3360.69 1163.77,3378.46 1128.73,3372.02C1094.6,3365.74 1066.03,3336.58 1061.31,3301.56C1056.67,3267.07 1076.06,3230.5 1108.76,3215.33C1119.83,3210.19 1131.89,3207.56 1144.25,3207.58ZM1143.74,3215.58C1115.48,3215.71 1088.02,3232.89 1075.82,3258.44C1065.66,3279.7 1066.42,3305.91 1077.9,3326.58C1093.13,3354.02 1126.6,3370.09 1158.25,3364.06C1191.45,3357.73 1218.69,3327.5 1219.38,3291.94C1219.92,3263.32 1202.66,3235.23 1176.25,3222.78C1166.11,3218 1155.01,3215.56 1143.74,3215.58ZM1169.53,3247.04C1172.58,3247.04 1175.2,3247.35 1177.4,3247.97C1179.6,3248.59 1181.52,3249.55 1183.15,3250.85C1184.79,3252.15 1186.26,3253.84 1187.55,3255.93C1188.85,3258.01 1190.18,3260.52 1191.53,3263.46C1192.09,3264.47 1193,3264.98 1194.24,3264.98C1194.91,3264.98 1195.67,3264.84 1196.52,3264.56C1197.37,3264.27 1198.07,3264.02 1198.64,3263.8C1197.73,3261.09 1197.03,3258.69 1196.52,3256.6C1196.01,3254.52 1195.59,3252.46 1195.25,3250.43C1194.69,3247.83 1194.32,3245.52 1194.15,3243.49C1193.98,3241.46 1193.73,3239.99 1193.39,3239.09C1192.83,3238.08 1191.92,3237.57 1190.68,3237.57C1189.33,3237.57 1186.82,3237.74 1183.15,3238.08C1179.49,3238.41 1175.12,3238.58 1170.04,3238.58L1117.92,3238.58C1112.73,3238.58 1108.31,3238.41 1104.64,3238.08C1100.97,3237.74 1098.52,3237.57 1097.28,3237.57C1095.92,3237.57 1095.02,3238.08 1094.57,3239.09C1094.23,3239.99 1093.95,3241.46 1093.73,3243.49C1093.5,3245.52 1093.16,3247.83 1092.71,3250.43C1092.37,3252.46 1091.92,3254.52 1091.36,3256.6C1090.79,3258.69 1090.12,3261.09 1089.33,3263.8C1089.78,3264.02 1090.45,3264.27 1091.36,3264.56C1092.26,3264.84 1093.05,3264.98 1093.73,3264.98C1094.97,3264.98 1095.81,3264.47 1096.26,3263.46C1097.62,3260.52 1098.94,3258.01 1100.24,3255.93C1101.54,3253.84 1103,3252.15 1104.64,3250.85C1106.28,3249.55 1108.19,3248.59 1110.39,3247.97C1112.59,3247.35 1115.27,3247.04 1118.43,3247.04L1133.32,3247.04L1133.32,3289.66L1112.75,3289.66C1110.92,3289.74 1110,3291.41 1110,3294.7L1110,3296.4C1110,3296.94 1110.06,3297.51 1110.18,3298.11L1133.32,3298.11L1133.32,3310.16L1112.88,3310.16C1110.96,3310.16 1110,3311.89 1110,3315.37L1110,3316.99C1110,3317.59 1110.06,3318.19 1110.18,3318.79L1133.32,3318.79L1133.32,3336.05C1133.32,3338.31 1132.79,3339.91 1131.71,3340.87C1130.64,3341.83 1128.02,3342.59 1123.85,3343.16C1122.6,3343.38 1121.84,3343.75 1121.56,3344.26C1121.28,3344.76 1121.14,3345.41 1121.14,3346.2C1121.14,3346.54 1121.17,3347.05 1121.22,3347.72C1121.28,3348.4 1121.42,3348.97 1121.64,3349.42C1125.26,3349.19 1129.06,3348.99 1133.07,3348.82C1137.07,3348.66 1140.71,3348.57 1143.98,3348.57C1147.14,3348.57 1150.78,3348.66 1154.89,3348.82C1159.01,3348.99 1162.88,3349.19 1166.49,3349.42C1166.6,3348.97 1166.68,3348.4 1166.74,3347.72C1166.8,3347.05 1166.83,3346.54 1166.83,3346.2C1166.83,3344.62 1165.98,3343.66 1164.29,3343.33C1162.03,3342.99 1160.28,3342.62 1159.04,3342.22C1157.8,3341.83 1156.84,3341.35 1156.16,3340.79C1155.49,3340.22 1155.06,3339.57 1154.89,3338.84C1154.73,3338.11 1154.64,3337.18 1154.64,3336.05L1154.64,3318.79L1174.91,3318.79C1176.94,3318.78 1177.96,3317.05 1177.96,3313.57L1177.96,3311.87C1177.96,3311.33 1177.9,3310.76 1177.78,3310.16L1154.64,3310.16L1154.64,3298.11L1174.91,3298.11C1176.94,3298.11 1177.96,3296.37 1177.96,3292.9L1177.96,3291.37C1177.96,3290.83 1177.9,3290.26 1177.78,3289.66L1154.64,3289.66L1154.64,3247.04L1169.53,3247.04Z" style="fill:white;"/>
            </g>
        </g>
    </g>
</svg>
