<?xml version="1.0" standalone="no"?>
<!DOCTYPE svg PUBLIC "-//W3C//DTD SVG 20010904//EN"
 "http://www.w3.org/TR/2001/REC-SVG-20010904/DTD/svg10.dtd">
<svg version="1.0" xmlns="http://www.w3.org/2000/svg"
 width="700.000000pt" height="700.000000pt" viewBox="0 0 700.000000 700.000000"
 preserveAspectRatio="xMidYMid meet">
<metadata>
Created by potrace 1.11, written by Peter Selinger 2001-2013
</metadata>
<g transform="translate(0.000000,700.000000) scale(0.100000,-0.100000)"
fill="#000000" stroke="none">
<path d="M3368 6255 c-2 -2 -46 -5 -98 -9 -81 -5 -148 -13 -245 -30 -11 -2
-38 -7 -60 -11 -110 -19 -391 -101 -480 -140 -16 -7 -59 -26 -95 -41 -494
-213 -972 -632 -1247 -1096 -94 -158 -97 -165 -203 -403 -39 -88 -117 -345
-134 -437 -2 -15 -11 -63 -20 -105 -47 -243 -54 -619 -17 -868 19 -124 23
-143 51 -260 137 -560 415 -1021 865 -1430 22 -20 92 -76 155 -124 322 -243
699 -415 1090 -497 109 -23 111 -23 160 -30 25 -3 56 -7 70 -10 142 -24 494
-24 685 1 341 43 755 181 1005 333 19 12 42 25 50 29 39 18 196 124 290 196
130 100 372 340 471 467 391 501 592 1076 593 1700 0 122 -9 304 -18 346 -2
12 -7 45 -11 75 -33 268 -155 630 -307 912 -199 368 -538 738 -888 969 -343
228 -761 390 -1120 433 -30 4 -57 8 -60 10 -18 11 -472 29 -482 20z m283 -499
c209 -13 388 -52 614 -133 112 -40 320 -138 378 -177 21 -14 40 -26 44 -26 3
0 49 -30 102 -67 415 -286 715 -678 866 -1128 34 -104 66 -228 79 -305 3 -19
7 -44 10 -55 4 -20 16 -121 22 -185 5 -53 4 -318 -1 -375 -30 -309 -123 -625
-254 -864 -23 -41 -41 -75 -41 -77 0 -10 -138 -206 -189 -268 -56 -69 -203
-222 -272 -283 -67 -58 -236 -180 -322 -232 -289 -175 -614 -286 -952 -326
-103 -12 -463 -14 -510 -2 -11 2 -45 8 -75 12 -30 4 -64 9 -75 11 -11 3 -40 9
-65 14 -146 29 -418 130 -560 207 -558 305 -974 814 -1142 1398 -16 54 -31
113 -34 130 -29 158 -35 201 -41 275 -12 150 -6 366 12 475 40 232 75 364 142
535 223 567 668 1034 1203 1264 36 15 74 31 85 36 41 18 182 62 275 85 152 38
227 49 400 61 58 3 106 7 107 9 3 2 61 -1 194 -9z"/>
<path d="M3417 5544 c-1 -1 -38 -5 -82 -8 -90 -7 -192 -22 -245 -36 -19 -5
-49 -12 -67 -15 -76 -13 -288 -92 -418 -155 -227 -111 -401 -235 -580 -415
-331 -332 -526 -749 -571 -1220 -8 -82 -8 -347 0 -389 3 -16 8 -59 12 -95 3
-36 8 -69 10 -73 2 -3 11 -43 20 -88 26 -141 108 -363 186 -508 35 -65 146
-236 174 -269 10 -12 33 -39 49 -60 187 -234 501 -462 825 -598 96 -40 299
-101 400 -120 148 -27 222 -34 380 -35 245 -1 438 31 667 111 178 63 347 153
527 282 109 77 333 294 415 400 179 233 313 505 380 772 26 104 31 134 50 283
13 106 4 416 -14 482 -2 8 -7 35 -10 59 -38 267 -214 658 -407 904 -64 81 -83
103 -188 207 -371 371 -855 571 -1409 584 -55 2 -102 2 -104 0z m-1062 -608
c201 -16 369 -19 1135 -19 751 0 988 4 1145 19 114 10 175 7 195 -11 20 -18
35 -78 44 -175 5 -48 13 -95 30 -176 2 -12 7 -37 10 -55 3 -19 13 -61 22 -94
8 -33 17 -67 19 -75 2 -8 10 -37 19 -64 8 -27 13 -53 10 -57 -6 -11 -78 -30
-115 -31 -39 -1 -63 22 -98 97 -75 162 -173 281 -273 331 -94 48 -162 57 -445
59 l-263 2 0 -582 0 -582 308 0 c170 0 314 -3 320 -7 15 -9 9 -144 -8 -177
-26 -47 -32 -48 -280 -48 -129 0 -259 0 -287 -1 l-53 0 0 -163 0 -163 311 0
c196 1 314 -3 319 -9 4 -5 7 -44 5 -86 -1 -61 -7 -83 -24 -108 -25 -35 11 -32
-414 -32 l-198 1 1 -267 c1 -292 5 -314 58 -345 33 -20 102 -43 152 -52 75
-13 85 -16 103 -35 15 -14 19 -32 18 -71 0 -28 -3 -56 -7 -61 -3 -5 -29 -7
-57 -5 -179 18 -590 23 -867 12 -319 -13 -303 -14 -306 9 -10 53 -6 108 9 122
8 8 59 24 113 35 110 22 165 48 185 87 11 19 15 94 17 299 l3 272 -233 0
c-128 -1 -272 -1 -320 0 l-87 0 3 83 c4 97 19 134 58 145 15 4 152 7 303 6
l275 0 0 163 0 163 -314 0 c-242 0 -315 3 -318 13 -10 27 -9 107 1 144 21 78
15 76 341 76 l290 0 0 582 0 582 -272 -3 c-296 -2 -341 -9 -446 -61 -97 -49
-197 -174 -275 -345 -29 -63 -46 -79 -84 -80 -34 -1 -110 19 -117 31 -3 4 10
61 28 127 31 109 52 219 90 457 19 116 39 137 126 130 14 -1 57 -4 95 -7z"/>
</g>
</svg>
